<svg width="215" height="215" viewBox="0 0 215 215" fill="none" xmlns="http://www.w3.org/2000/svg">
<rect width="215" height="215" fill="#F5F5F5"/>
<rect width="215" height="215" fill="#D9D9D9"/>
<path d="M152.075 141.875L144.575 134.375V73.5H83.7L76.2 66H144.575C146.575 66 148.325 66.75 149.825 68.25C151.325 69.75 152.075 71.5 152.075 73.5V141.875ZM147.825 164L139.825 156H69.575C67.575 156 65.825 155.25 64.325 153.75C62.825 152.25 62.075 150.5 62.075 148.5V78.25L54.2 70.375L59.575 65L153.2 158.625L147.825 164ZM76.575 136.375L91.2 117.375L102.825 133.25L109.075 125.125L69.575 85.625V148.5H132.45L120.325 136.375H76.575Z" fill="#5F6368"/>
</svg>
